<?xml version="1.0" encoding="UTF-8"?>
<svg id="Layer_1" data-name="Layer 1" xmlns="http://www.w3.org/2000/svg" viewBox="0 0 100 100">
  <defs>
    <style>
      .cls-1 {
        fill: #231f20;
      }
    </style>
  </defs>
  <g>
    <path class="cls-1" d="m53.01,67.32c.12-.22.19-.46.19-.71s-.08-.37-.23-.37c-.22,0-.43.19-.64.57-.21.38-.36.82-.45,1.3.22-.01.44-.09.64-.24.2-.15.37-.33.49-.56Z"/>
    <path class="cls-1" d="m43.25,57.81c.3,0,.6-.14.9-.43.3-.29.5-.68.61-1.17l.87-4.11c0-.16-.06-.31-.18-.46-.12-.15-.31-.23-.56-.23-.49,0-.92.28-1.31.85-.39.56-.69,1.24-.91,2.04-.22.8-.33,1.5-.33,2.1s.09,1,.26,1.17c.18.17.39.25.65.25Z"/>
    <path class="cls-1" d="m59.21,53.34c.25-.46.37-.93.37-1.43s-.15-.75-.46-.75c-.43,0-.85.39-1.27,1.16-.42.77-.73,1.64-.94,2.59.46-.01.9-.16,1.3-.46.41-.29.73-.66.98-1.12Z"/>
    <path class="cls-1" d="m38.96,66.24c-.21,0-.42.19-.63.58-.21.39-.37.82-.47,1.3.23,0,.45-.08.65-.23.2-.15.37-.33.49-.56.12-.23.19-.47.19-.71s-.08-.37-.23-.37Z"/>
    <path class="cls-1" d="m56.55,66.36c-.24,0-.46.14-.66.42-.19.28-.35.62-.46,1.02-.11.4-.16.75-.16,1.05s.04.5.13.58c.09.09.2.13.32.13.15,0,.3-.07.45-.21.15-.14.25-.34.31-.59l.44-2.06c0-.08-.03-.16-.09-.23-.06-.08-.15-.11-.28-.11Z"/>
    <path class="cls-1" d="m84.17,48.97l-26.59-6.46-12.11-24.94-12.82,22.19-26.59-3.76,19.24,26.38-4.54,26.48,23.78-12.5,24.35,15.82-5.11-29.8,20.39-13.4Zm-55.59-.82c.5-.73,1.17-1.32,2.02-1.76.85-.44,1.77-.66,2.77-.66.28,0,.52.02.73.05.21.04.44.1.71.2l2.18,9.74,2.04-9.89h1.77l-2.97,13.62h-2.51l-2.11-9.03-2.08,9.03h-1.73l2.75-12.47c-.83.29-1.45.75-1.88,1.37-.43.63-.65,1.38-.65,2.27,0,.39.04.74.13,1.07.08.32.21.59.36.79-.78,0-1.35-.16-1.72-.48-.37-.32-.56-.82-.56-1.48,0-.85.25-1.64.75-2.38Zm11.02,19.42c-.19.29-.45.51-.77.69-.32.17-.66.27-1.03.3h0c-.01.13-.02.22-.02.27,0,.5.19.76.56.76.17,0,.35-.05.55-.14.19-.09.37-.21.53-.35-.16.9-.69,1.35-1.57,1.35-.44,0-.79-.12-1.04-.35-.12-.11-.21-.25-.27-.43h0c-.12.19-.24.33-.37.44-.29.23-.6.34-.91.34-.37,0-.64-.1-.81-.3-.17-.2-.26-.44-.26-.73,0-.13.02-.27.05-.43.03-.16.06-.32.1-.47.03-.15.06-.25.07-.29.05-.21.09-.42.14-.63.04-.21.06-.37.06-.5,0-.31-.11-.46-.33-.46-.15,0-.29.07-.41.22-.12.15-.21.33-.29.56h0c-.18.95-.37,1.95-.56,2.98h-1.31s1.25-5.81,1.25-5.81c-.21-.02-.61-.07-1.2-.15h0s-1.28,5.96-1.28,5.96h-1.31l1.3-6.04c-.58.02-1.03.17-1.35.45-.32.27-.48.74-.48,1.41,0,.22.02.38.06.47.04.09.06.14.06.15-.33,0-.57-.07-.73-.2-.16-.14-.24-.36-.24-.68,0-.42.12-.82.35-1.17.23-.36.59-.65,1.07-.86s1.08-.33,1.79-.33c.12,0,.38.03.77.08.72.1,1.28.15,1.68.15.52,0,.89-.07,1.1-.22,0,0,0,0,0,0-.09.17-.17.33-.22.48-.06.15-.13.4-.21.74-.09.34-.19.85-.33,1.52,0,0,0,0,0,0,.31-.35.67-.53,1.08-.53.31,0,.56.09.74.25.18.17.27.43.27.77,0,.18-.02.37-.06.59-.04.22-.1.48-.18.79-.05.19-.09.37-.13.55-.04.18-.06.32-.06.42,0,.12.03.22.08.28.05.07.15.1.28.1.18,0,.33-.07.44-.2.07-.08.13-.19.2-.33,0-.01,0-.03,0-.04,0-.42.08-.88.25-1.38.16-.5.43-.94.8-1.31.37-.37.84-.55,1.41-.55.67,0,1,.29,1,.87,0,.34-.1.65-.29.94Zm.05-10.92c0-.9.18-1.84.54-2.83.36-.99.89-1.83,1.6-2.51.71-.69,1.56-1.03,2.54-1.03.5,0,.87.09,1.11.25.24.17.36.39.36.67v.13l.2-.96h2.62l-1.31,6.19c-.05.18-.07.38-.07.58,0,.52.25.78.75.78.34,0,.63-.16.88-.47.25-.32.45-.73.59-1.24,0,0,0,0,0,0l1.09-5.12h-.6l.15-.73h.6l.55-2.51,2.69-.36-.62,2.88h1.09l-.15.73h-1.09l-1.17,5.46c-.05.18-.07.38-.07.58,0,.24.06.42.17.52.12.1.31.15.57.15.35,0,.68-.15.98-.45.16-.16.29-.34.41-.54,0-.05,0-.09,0-.14,0-.84.16-1.76.49-2.77.33-1.01.86-1.88,1.6-2.61.74-.73,1.68-1.1,2.82-1.1,1.34,0,2,.58,2,1.75,0,.68-.19,1.3-.58,1.88-.39.57-.9,1.03-1.55,1.37-.64.35-1.33.54-2.06.59h0c-.02.27-.04.45-.04.55,0,1.01.38,1.51,1.13,1.51.34,0,.7-.09,1.09-.27.39-.18.74-.41,1.06-.69-.33,1.8-1.38,2.69-3.15,2.69-.89,0-1.58-.23-2.08-.7-.25-.24-.44-.54-.56-.92-.27.39-.57.7-.89.92-.7.47-1.4.7-2.09.7-.58,0-1.05-.18-1.41-.55-.25-.25-.41-.59-.48-1.01-.25.37-.52.65-.81.86-.66.47-1.33.7-1.99.7-.51,0-.92-.14-1.23-.43-.31-.29-.49-.7-.56-1.25-.35.5-.74.9-1.17,1.21-.43.31-.94.46-1.54.46-.69,0-1.27-.24-1.73-.71-.46-.47-.69-1.21-.69-2.22Zm5.7,14.99c-.36.42-.81.64-1.38.64-.44,0-.8-.11-1.07-.34-.27-.23-.41-.53-.41-.9,0-.23.05-.44.16-.64s.26-.35.45-.46c.19-.11.39-.17.62-.17s.42.06.56.17c.14.12.21.27.21.46,0,.15-.03.26-.1.35-.05-.07-.13-.13-.22-.17-.09-.04-.19-.06-.3-.06-.18,0-.33.06-.45.18-.12.12-.17.28-.17.47s.06.35.17.47c.11.12.25.18.42.18.21,0,.39-.09.55-.28.15-.19.27-.47.35-.84l.46-2.01h-.04c-.16.23-.36.41-.6.53-.23.12-.49.18-.77.18-.35,0-.66-.09-.93-.28-.27-.19-.47-.46-.61-.81-.14-.35-.21-.75-.21-1.22,0-.67.15-1.28.44-1.83.29-.55.69-.98,1.2-1.3.51-.32,1.07-.47,1.68-.47.52,0,.92.11,1.22.34.3.22.45.53.45.92,0,.26-.06.47-.19.63-.13.16-.29.24-.5.24-.12,0-.22-.02-.32-.07-.1-.05-.18-.12-.25-.21.11-.07.2-.19.28-.35.08-.16.11-.32.11-.49,0-.18-.05-.32-.16-.42-.11-.1-.26-.15-.45-.15-.35,0-.69.16-1.02.47-.33.31-.59.72-.79,1.22-.2.5-.3,1.03-.3,1.58,0,.46.07.8.22,1.04.15.24.35.36.63.36.33,0,.62-.17.87-.52.25-.35.45-.85.61-1.51h1.07s-.66,3.07-.66,3.07c-.19.9-.47,1.57-.82,1.99Zm4.4-4.55c-.05-.06-.08-.16-.1-.28-.02-.08-.04-.14-.05-.17-.02-.04-.05-.05-.1-.05-.13,0-.24.03-.32.08-.09.05-.2.14-.34.27l-.73,3.46h-1.31l.96-4.55h1.31l-.12.56c.22-.19.41-.34.59-.43.06-.03.12-.06.19-.08.35-.1.62-.05.78.15.1.12.16.26.17.42,0,.12-.01.24-.06.35-.11.25-.31.37-.59.37-.13,0-.22-.03-.27-.1Zm11.53-.89h-.55l-.58,2.73c-.03.13-.05.24-.05.32,0,.22.11.33.32.33.11,0,.19,0,.24-.03-.12.35-.26.59-.43.71s-.34.18-.54.18c-.31,0-.54-.09-.69-.28-.11-.14-.18-.31-.21-.51h0c-.13.19-.26.34-.41.44-.33.23-.66.35-1,.35-.25,0-.46-.07-.61-.21-.15-.14-.25-.35-.28-.62-.18.25-.37.45-.59.61-.22.15-.47.23-.77.23-.35,0-.63-.12-.86-.35-.17-.18-.28-.42-.32-.75-.59.73-1.29,1.1-2.1,1.1-.45,0-.8-.12-1.05-.35-.25-.23-.37-.6-.37-1.1,0-.42.08-.88.25-1.38.16-.5.43-.94.8-1.31.37-.37.84-.55,1.41-.55.67,0,1,.29,1,.87,0,.34-.1.65-.29.94-.19.29-.45.51-.77.69-.32.17-.66.27-1.03.3h0c-.01.18-.02.3-.02.36,0,.3.05.5.15.61.1.11.27.16.5.16.33,0,.61-.08.84-.23.2-.13.42-.32.66-.57.01-.42.1-.86.26-1.32.18-.49.45-.91.8-1.26.35-.34.78-.51,1.27-.51.25,0,.43.04.56.13.12.09.18.2.18.34v.06l.1-.48h1.31l-.66,3.1c-.02.09-.04.19-.04.29,0,.26.12.39.37.39.17,0,.32-.08.44-.24.12-.16.22-.36.3-.62h.04l.55-2.56h-.3l.07-.36h.3l.27-1.26,1.35-.18s0,0,0,0c-.05.23-.09.37-.09.41-.04.17-.12.51-.22,1.03h.55s-.07.36-.07.36Z"/>
  </g>
  <polygon class="cls-1" points="68.87 11.93 69.89 15.93 73.77 17.36 70.28 19.57 70.11 23.7 66.94 21.06 62.96 22.18 64.49 18.34 62.19 14.91 66.31 15.18 68.87 11.93"/>
  <polygon class="cls-1" points="54.02 9.82 56.06 11.62 58.69 10.96 57.61 13.44 59.05 15.74 56.35 15.49 54.61 17.57 54.02 14.92 51.51 13.91 53.84 12.53 54.02 9.82"/>
  <polygon class="cls-1" points="84.54 18.25 85.72 24.29 91.37 26.75 85.98 29.74 85.39 35.87 80.88 31.67 74.87 33.01 77.47 27.42 74.34 22.11 80.46 22.86 84.54 18.25"/>
  <g>
    <path class="cls-1" d="m87.65,40.85l-14.85,19.03,1.55,1.21,14.73-18.89c-.44-.51-.93-.96-1.44-1.35Z"/>
    <path class="cls-1" d="m90.35,40.58l3.6-4.61-1.55-1.21-3.44,4.41c.56.4,1.02.88,1.4,1.41Z"/>
  </g>
</svg>